<svg width="34" height="32" viewBox="0 0 34 32" fill="none" xmlns="http://www.w3.org/2000/svg">
<path d="M24.5967 2.19869C24.334 0.945985 23.1934 0 21.829 0C21.5172 0 21.2641 0.245703 21.2641 0.549672C21.2641 0.85364 21.5172 1.09934 21.829 1.09934C22.7635 1.09934 23.5239 1.8392 23.5239 2.74836C23.5239 3.65752 22.7635 4.39738 21.829 4.39738C21.5172 4.39738 21.2641 4.64308 21.2641 4.94705C21.2641 5.25102 21.5172 5.49672 21.829 5.49672C23.1928 5.49672 24.334 4.55073 24.5967 3.29803H31.998V8.24508H1.49118V3.29803H9.40035H11.0952C11.407 3.29803 11.6601 3.05233 11.6601 2.74836C11.6601 2.44439 11.407 2.19869 11.0952 2.19869H10.0692C10.3031 1.55997 10.9246 1.09934 11.6601 1.09934C12.5945 1.09934 13.3549 1.8392 13.3549 2.74836C13.3549 3.65752 12.5945 4.39738 11.6601 4.39738C11.3483 4.39738 11.0952 4.64308 11.0952 4.94705C11.0952 5.25102 11.3483 5.49672 11.6601 5.49672C13.2177 5.49672 14.4848 4.2638 14.4848 2.74836C14.4848 1.23291 13.2177 0 11.6601 0C10.2963 0 9.15516 0.945985 8.89247 2.19869H0.361298V9.34442V31.3313H33.1279V9.34442V2.19869H24.5967ZM31.998 30.232H1.49118V9.34442H31.998V30.232Z" fill="white"/>
</svg>
